<?xml version="1.0" encoding="utf-8"?>
<!-- Generator: Adobe Illustrator 16.0.0, SVG Export Plug-In . SVG Version: 6.00 Build 0)  -->
<!DOCTYPE svg PUBLIC "-//W3C//DTD SVG 1.1//EN" "http://www.w3.org/Graphics/SVG/1.1/DTD/svg11.dtd">
<svg version="1.1" id="Layer_1" xmlns="http://www.w3.org/2000/svg" xmlns:xlink="http://www.w3.org/1999/xlink" x="0px" y="0px"
	 width="300px" height="300px" viewBox="0 0 300 300" enable-background="new 0 0 300 300" xml:space="preserve">
<g>
	<path fill="#FFFFFF" d="M281.227,93.704C272.966,42.019,226.278,10,158.857,10c-9.906,0-19.966,0.729-29.897,2.161
		C55.28,22.795,11.787,65.676,12.456,126.89c-1.81,8.841-2.651,17.864-2.5,26.843c0.042,2.521,0.16,5.032,0.346,7.524
		c5.202,69.241,65.479,127.744,131.625,127.75c13.097,0,26.137-2.232,38.768-6.637c59.834-20.876,105.758-78.518,109.196-137.064
		C291.006,126.252,288.09,108.903,281.227,93.704z"/>
	<g>
		<g>
			<path fill="#AF9600" d="M25.323,159.942c5.292,70.452,76.287,130.532,147.066,105.829c51.219-17.871,94.267-67.337,97.444-121.49
				c4.718-80.405-72.987-103.273-139.08-93.737C74.156,58.716,23.939,89.388,25.023,153.435
				C25.06,155.611,25.161,157.784,25.323,159.942z"/>
			<path fill="none" stroke="#AF9600" stroke-width="2" stroke-miterlimit="10" d="M25.323,159.942
				c5.292,70.452,76.287,130.532,147.066,105.829c51.219-17.871,94.267-67.337,97.444-121.49
				c4.718-80.405-72.987-103.273-139.08-93.737C74.156,58.716,23.939,89.388,25.023,153.435
				C25.06,155.611,25.161,157.784,25.323,159.942z"/>
		</g>
		<path fill="#FEE748" d="M22.811,133.99c5.292,70.447,76.288,130.524,147.066,105.833c51.219-17.875,94.266-67.348,97.446-121.5
			c4.719-80.4-72.989-103.272-139.082-93.732C71.644,32.758,21.427,63.434,22.512,127.485
			C22.548,129.664,22.649,131.832,22.811,133.99z"/>
		<polygon fill="#006F96" points="143.664,49.642 71.629,121.683 85.638,129.889 93.587,118.921 104.839,193.475 178.196,191.071 
			194.29,124.764 205.763,138.474 213.199,125.033 		"/>
	</g>
</g>
</svg>
